<?xml version="1.0" encoding="UTF-8"?>
<svg width="160px" height="160px" viewBox="0 0 160 160" version="1.1" xmlns="http://www.w3.org/2000/svg" xmlns:xlink="http://www.w3.org/1999/xlink">
    <!-- Generator: Sketch 52.5 (67469) - http://www.bohemiancoding.com/sketch -->
    <title>Impleum_logo</title>
    <desc>Created with Sketch.</desc>
    <defs>
        <linearGradient x1="50%" y1="2.62373555%" x2="50%" y2="98.0762283%" id="linearGradient-1">
            <stop stop-color="#305798" offset="0%"></stop>
            <stop stop-color="#141621" offset="100%"></stop>
        </linearGradient>
        <circle id="path-2" cx="80" cy="80" r="80"></circle>
        <filter x="-1.2%" y="-1.2%" width="102.5%" height="102.5%" filterUnits="objectBoundingBox" id="filter-3">
            <feGaussianBlur stdDeviation="1.5" in="SourceAlpha" result="shadowBlurInner1"></feGaussianBlur>
            <feOffset dx="0" dy="1" in="shadowBlurInner1" result="shadowOffsetInner1"></feOffset>
            <feComposite in="shadowOffsetInner1" in2="SourceAlpha" operator="arithmetic" k2="-1" k3="1" result="shadowInnerInner1"></feComposite>
            <feColorMatrix values="0 0 0 0 0   0 0 0 0 0   0 0 0 0 0  0 0 0 0.7 0" type="matrix" in="shadowInnerInner1"></feColorMatrix>
        </filter>
        <linearGradient x1="82.3597171%" y1="93.8763608%" x2="95.8138021%" y2="-46.234022%" id="linearGradient-4">
            <stop stop-color="#FFFFFF" offset="0%"></stop>
            <stop stop-color="#FFFFFF" offset="0%"></stop>
            <stop stop-color="#CED3EC" offset="100%"></stop>
        </linearGradient>
    </defs>
    <g id="Impleum_logo" stroke="none" stroke-width="1" fill="none" fill-rule="evenodd">
        <g id="Group-Copy">
            <circle id="Oval" fill="url(#linearGradient-1)" cx="80" cy="80" r="80"></circle>
            <g id="Oval">
                <use fill="black" fill-opacity="1" filter="url(#filter-3)" xlink:href="#path-2"></use>
                <circle stroke="#F8F9FC" stroke-width="3" stroke-linejoin="square" cx="80" cy="80" r="78.5"></circle>
            </g>
            <path d="M56.4837304,54 C57.2400634,54 57.8416829,54.2793623 58.2886069,54.8380952 C58.7355309,55.3968282 58.8902331,56.0603136 58.752718,56.8285714 L56.9994094,65 C56.8618943,65.7682578 56.4493553,66.4317432 55.7617798,66.9904762 C55.0742044,67.5492091 54.352261,67.8285714 53.5959281,67.8285714 L44.7262495,67.8285714 C43.9699165,67.8285714 43.3854861,67.5492091 42.9729409,66.9904762 C42.5603956,66.4317432 42.4228826,65.7682578 42.5603977,65 L44.3137063,56.8285714 C44.4512214,56.0603136 44.8465713,55.3968282 45.4997679,54.8380952 C46.1529646,54.2793623 46.8577188,54 47.6140518,54 L56.4837304,54 Z M52.0475983,75.9985783 C52.8041717,75.9985783 53.4059825,76.2779406 53.8530487,76.8366735 C54.3001148,77.3954065 54.4548661,78.0588919 54.3173073,78.8271497 L48.495188,106.171429 C48.3576292,106.939686 47.944959,107.603172 47.2571649,108.161905 C46.5693708,108.720638 45.8471979,109 45.0906244,109 L36.2181254,109 C35.4615519,109 34.8769357,108.720638 34.4642593,108.161905 C34.0515828,107.603172 33.9140261,106.939686 34.0515849,106.171429 L39.8737042,78.8271497 C40.011263,78.0588919 40.4067386,77.3954065 41.060143,76.8366735 C41.7135474,76.2779406 42.4185257,75.9985783 43.1750992,75.9985783 L52.0475983,75.9985783 Z M75.1484653,75.9985783 C75.9050388,75.9985783 76.5068495,76.2779406 76.9539157,76.8366735 C77.4009818,77.3954065 77.5557332,78.0588919 77.4181744,78.8271497 L71.5960551,106.171429 C71.4584962,106.939686 71.045826,107.603172 70.3580319,108.161905 C69.6702379,108.720638 68.9480649,109 68.1914915,109 L59.3189924,109 C58.5624189,109 57.9778027,108.720638 57.5651263,108.161905 C57.1524498,107.603172 57.0148931,106.939686 57.1524519,106.171429 L62.9745712,78.8271497 C63.11213,78.0588919 63.5076057,77.3954065 64.16101,76.8366735 C64.8144144,76.2779406 65.5193927,75.9985783 66.2759662,75.9985783 L75.1484653,75.9985783 Z M125.68174,54 C126.438314,54 127.040125,54.2793623 127.487191,54.8380952 C127.934257,55.3968282 128.089008,56.0603136 127.95145,56.8285714 L122.12933,84.1728503 C121.991771,84.9411081 121.579101,85.6045935 120.891307,86.1633265 C120.203513,86.7220594 119.48134,87.0014217 118.724767,87.0014217 L109.852268,87.0014217 C109.095694,87.0014217 108.511078,86.7220594 108.098401,86.1633265 C107.685725,85.6045935 107.548168,84.9411081 107.685727,84.1728503 L113.507846,56.8285714 C113.645405,56.0603136 114.040881,55.3968282 114.694285,54.8380952 C115.34769,54.2793623 116.052668,54 116.809241,54 L125.68174,54 Z M94.415218,106.144231 C94.2763629,106.919876 93.8771605,107.589741 93.2175989,108.153846 C92.5580372,108.717952 91.8464155,109 91.0827125,109 L82.7512146,109 C81.9875116,109 81.3800297,108.717952 80.9287506,108.153846 C80.4774716,107.589741 80.321262,106.919876 80.4601171,106.144231 L90.7700561,56.8557692 C90.9089112,56.0801243 91.3254702,55.4102592 92.0197457,54.8461538 C92.7140211,54.2820485 93.4429994,54 94.2067024,54 L102.5382,54 C103.301903,54 103.892029,54.2820485 104.308594,54.8461538 C104.725159,55.4102592 104.864012,56.0801243 104.725157,56.8557692 L94.415218,106.144231 Z" id="i" fill="url(#linearGradient-4)"></path>
        </g>
    </g>
</svg>