<?xml version="1.0" encoding="UTF-8"?>
<svg width="512px" height="512px" viewBox="0 0 512 512" version="1.1" xmlns="http://www.w3.org/2000/svg" xmlns:xlink="http://www.w3.org/1999/xlink">
    <!-- Generator: Sketch 49.3 (51167) - http://www.bohemiancoding.com/sketch -->
    <title>Artboard 5</title>
    <desc>Created with Sketch.</desc>
    <defs>
        <filter x="-5.8%" y="-5.4%" width="111.6%" height="111.6%" filterUnits="objectBoundingBox" id="filter-1">
            <feOffset dx="0" dy="2" in="SourceAlpha" result="shadowOffsetOuter1"></feOffset>
            <feGaussianBlur stdDeviation="6" in="shadowOffsetOuter1" result="shadowBlurOuter1"></feGaussianBlur>
            <feColorMatrix values="0 0 0 0 0   0 0 0 0 0.0793548647   0 0 0 0 0.279283588  0 0 0 0.3 0" type="matrix" in="shadowBlurOuter1" result="shadowMatrixOuter1"></feColorMatrix>
            <feMerge>
                <feMergeNode in="shadowMatrixOuter1"></feMergeNode>
                <feMergeNode in="SourceGraphic"></feMergeNode>
            </feMerge>
        </filter>
        <circle id="path-2" cx="232.5" cy="232.5" r="232.5"></circle>
        <linearGradient x1="0%" y1="0.577884856%" x2="102%" y2="100.411353%" id="linearGradient-4">
            <stop stop-color="#00EAF8" offset="0%"></stop>
            <stop stop-color="#4F70F1" offset="72.7798151%"></stop>
            <stop stop-color="#6D42EF" offset="100%"></stop>
        </linearGradient>
        <linearGradient x1="82.3597171%" y1="93.8763608%" x2="95.8138021%" y2="-46.234022%" id="linearGradient-5">
            <stop stop-color="#FFFFFF" offset="0%"></stop>
            <stop stop-color="#FFFFFF" offset="0%"></stop>
            <stop stop-color="#CED3EC" offset="100%"></stop>
        </linearGradient>
    </defs>
    <g id="Artboard-5" stroke="none" stroke-width="1" fill="none" fill-rule="evenodd">
        <g id="Group" transform="translate(24.000000, 24.000000)">
            <g id="Rectangle-2" filter="url(#filter-1)">
                <mask id="mask-3" fill="white">
                    <use xlink:href="#path-2"></use>
                </mask>
                <g id="Mask">
                    <use fill="#D8D8D8" fill-rule="evenodd" xlink:href="#path-2"></use>
                    <circle stroke="#FFFFFF" stroke-width="8" cx="232.5" cy="232.5" r="236.5"></circle>
                </g>
                <rect fill="url(#linearGradient-4)" mask="url(#mask-3)" x="-3" y="-3" width="472.618384" height="472.618384"></rect>
            </g>
            <path d="M157.234964,149 C159.664884,149 161.597747,149.88888 163.033609,151.666667 C164.469472,153.444453 164.966493,155.555543 164.52469,158 L158.89172,184 C158.449916,186.444457 157.124524,188.555547 154.915505,190.333333 C152.706487,192.11112 150.387051,193 147.957131,193 L119.460929,193 C117.031008,193 115.15337,192.11112 113.827959,190.333333 C112.502548,188.555547 112.060751,186.444457 112.502554,184 L118.135524,158 C118.577328,155.555543 119.847495,153.444453 121.946063,151.666667 C124.044631,149.88888 126.308841,149 128.738762,149 L157.234964,149 Z M142.982709,218.995476 C145.413403,218.995476 147.34688,219.884356 148.783199,221.662143 C150.219518,223.43993 150.716698,225.55102 150.274753,227.995476 L131.569647,315 C131.127702,317.444457 129.801889,319.555547 127.592168,321.333333 C125.382447,323.11112 123.062274,324 120.631581,324 L92.1263176,324 C89.6956241,324 87.8173891,323.11112 86.4915563,321.333333 C85.1657235,319.555547 84.7237859,317.444457 85.1657301,315 L103.870837,227.995476 C104.312781,225.55102 105.583352,223.43993 107.682587,221.662143 C109.781822,219.884356 112.046753,218.995476 114.477446,218.995476 L142.982709,218.995476 Z M217.200389,218.995476 C219.631082,218.995476 221.564559,219.884356 223.000878,221.662143 C224.437197,223.43993 224.934377,225.55102 224.492433,227.995476 L205.787326,315 C205.345382,317.444457 204.019569,319.555547 201.809847,321.333333 C199.600126,323.11112 197.279953,324 194.84926,324 L166.343997,324 C163.913303,324 162.035068,323.11112 160.709236,321.333333 C159.383403,319.555547 158.941465,317.444457 159.383409,315 L178.088516,227.995476 C178.53046,225.55102 179.801031,223.43993 181.900266,221.662143 C183.999502,219.884356 186.264432,218.995476 188.695126,218.995476 L217.200389,218.995476 Z M379.551975,149 C381.982668,149 383.916145,149.88888 385.352464,151.666667 C386.788783,153.444453 387.285963,155.555543 386.844019,158 L368.138912,245.004524 C367.696968,247.44898 366.371155,249.56007 364.161433,251.337857 C361.951712,253.115644 359.631539,254.004524 357.200846,254.004524 L328.695583,254.004524 C326.264889,254.004524 324.386654,253.115644 323.060822,251.337857 C321.734989,249.56007 321.293051,247.44898 321.734995,245.004524 L340.440102,158 C340.882046,155.555543 342.152617,153.444453 344.251852,151.666667 C346.351088,149.88888 348.616018,149 351.046712,149 L379.551975,149 Z M279.099956,314.913462 C278.653847,317.381423 277.371303,319.512812 275.252286,321.307692 C273.133268,323.102573 270.846994,324 268.393395,324 L241.626243,324 C239.172644,324 237.220946,323.102573 235.771093,321.307692 C234.321239,319.512812 233.819374,317.381423 234.265482,314.913462 L267.388904,158.086538 C267.835013,155.618577 269.173319,153.487188 271.403864,151.692308 C273.634408,149.897427 275.976445,149 278.430044,149 L305.197197,149 C307.650796,149 309.54673,149.897427 310.885057,151.692308 C312.223384,153.487188 312.669486,155.618577 312.223377,158.086538 L279.099956,314.913462 Z" id="i" fill="url(#linearGradient-5)"></path>
        </g>
    </g>
</svg>