<?xml version="1.0" encoding="UTF-8"?>
<svg width="375px" height="219px" viewBox="0 0 375 219" version="1.1" xmlns="http://www.w3.org/2000/svg" xmlns:xlink="http://www.w3.org/1999/xlink">
    <!-- Generator: Sketch 49.3 (51167) - http://www.bohemiancoding.com/sketch -->
    <title>Group Copy</title>
    <desc>Created with Sketch.</desc>
    <defs>
        <linearGradient x1="0%" y1="0.577884856%" x2="102%" y2="100.411353%" id="linearGradient-1">
            <stop stop-color="#00EAF8" offset="0%"></stop>
            <stop stop-color="#6D42EF" offset="100%"></stop>
        </linearGradient>
    </defs>
    <g id="Identify" stroke="none" stroke-width="1" fill="none" fill-rule="evenodd">
        <g id="Group-Copy" fill="url(#linearGradient-1)">
            <path d="M89.695733,0 C92.7130188,0 95.1130965,1.1111 96.8960381,3.33333333 C98.6789797,5.55556667 99.2961425,8.19442917 98.7475451,11.25 L91.7529631,43.75 C91.2043656,46.8055708 89.5585981,49.4444333 86.815611,51.6666667 C84.072624,53.8889 81.1925308,55 78.175245,55 L42.7908888,55 C39.773603,55 37.442099,53.8889 35.7963068,51.6666667 C34.1505145,49.4444333 33.6019253,46.8055708 34.1505228,43.75 L41.1451048,11.25 C41.6937022,8.19442917 43.2708961,5.55556667 45.8767338,3.33333333 C48.4825715,1.1111 51.2940911,0 54.3113769,0 L89.695733,0 Z M71.9983973,87.4943455 C75.0166426,87.4943455 77.4174834,88.6054455 79.200992,90.8276788 C80.9845005,93.0499122 81.6018596,95.6887747 81.0530878,98.7443455 L57.826548,207.5 C57.2777761,210.555571 55.6314852,213.194433 52.8876259,215.416667 C50.1437666,217.6389 47.2627576,218.75 44.2445124,218.75 L8.84890432,218.75 C5.83065909,218.75 3.49841367,217.6389 1.85209808,215.416667 C0.205782502,213.194433 -0.342981127,210.555571 0.205790734,207.5 L23.4323305,98.7443455 C23.9811024,95.6887747 25.5587978,93.0499122 28.1654641,90.8276788 C30.7721305,88.6054455 33.5845441,87.4943455 36.6027893,87.4943455 L71.9983973,87.4943455 Z M164.156112,87.4943455 C167.174357,87.4943455 169.575198,88.6054455 171.358706,90.8276788 C173.142215,93.0499122 173.759574,95.6887747 173.210802,98.7443455 L149.984262,207.5 C149.43549,210.555571 147.789199,213.194433 145.04534,215.416667 C142.301481,217.6389 139.420472,218.75 136.402227,218.75 L101.006619,218.75 C97.9883733,218.75 95.6561279,217.6389 94.0098123,215.416667 C92.3634967,213.194433 91.8147331,210.555571 92.363505,207.5 L115.590045,98.7443455 C116.138817,95.6887747 117.716512,93.0499122 120.323178,90.8276788 C122.929845,88.6054455 125.742258,87.4943455 128.760504,87.4943455 L164.156112,87.4943455 Z M365.751624,0 C368.769869,0 371.17071,1.1111 372.954219,3.33333333 C374.737727,5.55556667 375.355086,8.19442917 374.806315,11.25 L351.579775,120.005655 C351.031003,123.061225 349.384712,125.700088 346.640853,127.922321 C343.896993,130.144555 341.015984,131.255655 337.997739,131.255655 L302.602131,131.255655 C299.583886,131.255655 297.25164,130.144555 295.605325,127.922321 C293.959009,125.700088 293.410246,123.061225 293.959017,120.005655 L317.185557,11.25 C317.734329,8.19442917 319.312025,5.55556667 321.918691,3.33333333 C324.525357,1.1111 327.337771,0 330.356016,0 L365.751624,0 Z M241.018157,207.391827 C240.464214,210.476778 238.871651,213.141014 236.240421,215.384615 C233.609191,217.628216 230.770275,218.75 227.723587,218.75 L194.486229,218.75 C191.439541,218.75 189.016076,217.628216 187.215761,215.384615 C185.415445,213.141014 184.792268,210.476778 185.346212,207.391827 L226.476288,11.3581731 C227.030231,8.27322175 228.692035,5.60898558 231.461751,3.36538462 C234.231467,1.12178365 237.139625,0 240.186313,0 L273.423671,0 C276.470359,0 278.824582,1.12178365 280.486412,3.36538462 C282.148241,5.60898558 282.702176,8.27322175 282.148233,11.3581731 L241.018157,207.391827 Z" id="i"></path>
        </g>
    </g>
</svg>